<?xml version="1.0" encoding="UTF-8"?>
<svg id="Layer_2" data-name="Layer 2" xmlns="http://www.w3.org/2000/svg" viewBox="0 0 73.76 73.76">
  <g id="Layer_1-2" data-name="Layer 1">
    <path d="M66.55,1.13c3.35,0,6.08,2.73,6.08,6.08v59.34c0,3.35-2.73,6.08-6.08,6.08H7.21c-3.35,0-6.08-2.73-6.08-6.08V7.21C1.12,3.85,3.85,1.13,7.21,1.13h59.34M36.88,31.23c2.25,0,4.08-1.83,4.08-4.08s-1.83-4.08-4.08-4.08-4.08,1.83-4.08,4.08,1.83,4.08,4.08,4.08M46.52,40.87c2.25,0,4.08-1.83,4.08-4.08s-1.83-4.08-4.08-4.08-4.08,1.83-4.08,4.08,1.83,4.08,4.08,4.08M65.8,50.5c2.25,0,4.08-1.83,4.08-4.08s-1.83-4.08-4.08-4.08-4.08,1.83-4.08,4.08,1.83,4.08,4.08,4.08M36.88,50.5c2.25,0,4.08-1.83,4.08-4.08s-1.83-4.08-4.08-4.08-4.08,1.83-4.08,4.08,1.83,4.08,4.08,4.08M27.24,50.5c2.25,0,4.08-1.83,4.08-4.08s-1.83-4.08-4.08-4.08-4.08,1.83-4.08,4.08,1.83,4.08,4.08,4.08M7.96,50.5c2.25,0,4.08-1.83,4.08-4.08s-1.83-4.08-4.08-4.08-4.08,1.83-4.08,4.08,1.83,4.08,4.08,4.08M36.88,60.14c2.25,0,4.08-1.83,4.08-4.08s-1.83-4.08-4.08-4.08-4.08,1.83-4.08,4.08,1.83,4.08,4.08,4.08M65.8,69.78c2.25,0,4.08-1.83,4.08-4.08s-1.83-4.08-4.08-4.08-4.08,1.83-4.08,4.08,1.83,4.08,4.08,4.08M46.52,69.78c2.25,0,4.08-1.83,4.08-4.08s-1.83-4.08-4.08-4.08-4.08,1.83-4.08,4.08,1.83,4.08,4.08,4.08M27.24,69.78c2.25,0,4.08-1.83,4.08-4.08s-1.83-4.08-4.08-4.08-4.08,1.83-4.08,4.08,1.83,4.08,4.08,4.08M17.6,69.78c2.25,0,4.08-1.83,4.08-4.08s-1.83-4.08-4.08-4.08-4.08,1.83-4.08,4.08,1.83,4.08,4.08,4.08M7.96,69.78c2.25,0,4.08-1.83,4.08-4.08s-1.83-4.08-4.08-4.08-4.08,1.83-4.08,4.08,1.83,4.08,4.08,4.08M66.55.38H7.21C3.43.38.37,3.43.37,7.21v59.34c0,3.77,3.06,6.83,6.83,6.83h59.34c3.77,0,6.83-3.06,6.83-6.83V7.21c0-3.77-3.06-6.83-6.83-6.83h0ZM36.88,30.48c-1.84,0-3.33-1.49-3.33-3.33s1.49-3.33,3.33-3.33,3.33,1.49,3.33,3.33-1.49,3.33-3.33,3.33h0ZM46.52,40.12c-1.84,0-3.33-1.49-3.33-3.33s1.49-3.33,3.33-3.33,3.33,1.49,3.33,3.33-1.49,3.33-3.33,3.33h0ZM65.8,49.75c-1.84,0-3.33-1.49-3.33-3.33s1.49-3.33,3.33-3.33,3.33,1.49,3.33,3.33-1.49,3.33-3.33,3.33h0ZM36.88,49.75c-1.84,0-3.33-1.49-3.33-3.33s1.49-3.33,3.33-3.33,3.33,1.49,3.33,3.33-1.49,3.33-3.33,3.33h0ZM27.24,49.75c-1.84,0-3.33-1.49-3.33-3.33s1.49-3.33,3.33-3.33,3.33,1.49,3.33,3.33-1.49,3.33-3.33,3.33h0ZM7.96,49.75c-1.84,0-3.33-1.49-3.33-3.33s1.49-3.33,3.33-3.33,3.33,1.49,3.33,3.33-1.49,3.33-3.33,3.33h0ZM36.88,59.39c-1.84,0-3.33-1.49-3.33-3.33s1.49-3.33,3.33-3.33,3.33,1.49,3.33,3.33-1.49,3.33-3.33,3.33h0ZM65.8,69.03c-1.84,0-3.33-1.49-3.33-3.33s1.49-3.33,3.33-3.33,3.33,1.49,3.33,3.33-1.49,3.33-3.33,3.33h0ZM46.52,69.03c-1.84,0-3.33-1.49-3.33-3.33s1.49-3.33,3.33-3.33,3.33,1.49,3.33,3.33-1.49,3.33-3.33,3.33h0ZM27.24,69.03c-1.84,0-3.33-1.49-3.33-3.33s1.49-3.33,3.33-3.33,3.33,1.49,3.33,3.33-1.49,3.33-3.33,3.33h0ZM17.6,69.03c-1.84,0-3.33-1.49-3.33-3.33s1.49-3.33,3.33-3.33,3.33,1.49,3.33,3.33-1.49,3.33-3.33,3.33h0ZM7.96,69.03c-1.84,0-3.33-1.49-3.33-3.33s1.49-3.33,3.33-3.33,3.33,1.49,3.33,3.33-1.49,3.33-3.33,3.33h0Z"/>
  </g>
</svg>