<?xml version="1.0" encoding="UTF-8"?>
<svg id="Layer_2" data-name="Layer 2" xmlns="http://www.w3.org/2000/svg" viewBox="0 0 129.99 225.57">
  <defs>
    <style>
      .cls-1, .cls-2, .cls-3 {
        fill: none;
        stroke: currentColor;
        stroke-width: .75px;
      }

      .cls-2 {
        stroke-linecap: round;
        stroke-linejoin: round;
      }

      .cls-3 {
        stroke-linecap: square;
        stroke-miterlimit: 10;
      }
    </style>
  </defs>
  <g id="Layer_1-2" data-name="Layer 1">
    <g>
      <line class="cls-2" x1="17.2" y1="33.93" x2="17.2" y2="218.17"/>
      <circle class="cls-1" cx="17.2" cy="221.68" r="3.51"/>
      <circle class="cls-1" cx="3.88" cy="221.68" r="3.51"/>
      <circle class="cls-1" cx="126.1" cy="221.68" r="3.51"/>
      <circle class="cls-1" cx="126.1" cy="208.35" r="3.51"/>
      <circle class="cls-1" cx="126.1" cy="3.88" r="3.51"/>
      <circle class="cls-1" cx="17.2" cy="3.88" r="3.51"/>
      <circle class="cls-1" cx="3.88" cy="3.88" r="3.51"/>
      <circle class="cls-1" cx="3.88" cy="30.42" r="3.51"/>
      <circle class="cls-1" cx="17.2" cy="30.42" r="3.51"/>
      <circle class="cls-1" cx="3.88" cy="17.15" r="3.51"/>
      <circle class="cls-1" cx="20.86" cy="114.36" r="3.51"/>
      <circle class="cls-1" cx="126.1" cy="114.36" r="3.51"/>
      <circle class="cls-1" cx="119.08" cy="114.36" r="3.51"/>
      <circle class="cls-1" cx="37.06" cy="114.36" r="19.85"/>
      <circle class="cls-1" cx="73.41" cy="112.78" r="56.2"/>
      <path class="cls-3" d="M20.71,3.88c60.14,0,108.9,48.76,108.9,108.9s-48.76,108.9-108.9,108.9"/>
      <line class="cls-2" x1="14.72" y1="6.36" x2="6.39" y2="14.65"/>
      <line class="cls-1" x1="3.88" y1="20.66" x2="3.88" y2="26.91"/>
      <line class="cls-1" x1="17.2" y1="7.39" x2="17.2" y2="26.91"/>
      <line class="cls-1" x1="13.69" y1="30.42" x2="7.39" y2="30.42"/>
    </g>
  </g>
</svg>