<?xml version="1.0" encoding="UTF-8"?>
<svg id="Layer_2" data-name="Layer 2" xmlns="http://www.w3.org/2000/svg" viewBox="0 0 70.49 50.95">
  <defs>
    <style>
      .cls-1 {
        fill: none;
        stroke: currentColor;
        stroke-miterlimit: 10;
        stroke-width: .75px;
      }
    </style>
  </defs>
  <g id="Layer_1-2" data-name="Layer 1">
    <g>
      <line class="cls-1" y1="11.53" x2="70.49" y2="11.53"/>
      <path d="M47.45,11.53h-16.62c1.63-1.63,2.54-2.54,4.17-4.17h8.29c1.63,1.63,2.54,2.54,4.17,4.17h0Z"/>
      <line class="cls-1" y1="5.95" x2="70.49" y2="5.95"/>
      <line class="cls-1" y1="17.11" x2="70.49" y2="17.11"/>
      <path d="M55.81,17.11H10.52c1.63-1.63,2.54-2.54,4.17-4.17h36.96c1.63,1.63,2.54,2.54,4.17,4.17h0Z"/>
      <line class="cls-1" y1="22.69" x2="70.49" y2="22.69"/>
      <path d="M59.98,22.69H23.02c1.63-1.63,2.54-2.54,4.17-4.17h28.63l4.17,4.17h0Z"/>
      <line class="cls-1" y1="28.26" x2="70.49" y2="28.26"/>
      <path d="M64.15,28.26H14.68c1.63-1.63,2.54-2.54,4.17-4.17h41.13c1.63,1.63,2.54,2.54,4.17,4.17h0Z"/>
      <line class="cls-1" y1="33.84" x2="70.49" y2="33.84"/>
      <path d="M59.98,33.84H10.52c1.63-1.63,2.54-2.54,4.17-4.17h41.13c1.63,1.63,2.54,2.54,4.17,4.17h0Z"/>
      <line class="cls-1" y1="39.42" x2="70.49" y2="39.42"/>
      <path d="M32.7,39.42H6.35c1.63-1.63,2.54-2.54,4.17-4.17h18.01c1.63,1.63,2.54,2.54,4.17,4.17h0Z"/>
      <line class="cls-1" y1="45" x2="70.49" y2="45"/>
      <path d="M42.51,45h-19.64c1.63-1.63,2.54-2.54,4.17-4.17h11.3c1.63,1.63,2.54,2.54,4.17,4.17h0Z"/>
      <line class="cls-1" y1="50.58" x2="70.49" y2="50.58"/>
      <path d="M19.02,50.58H6.35s0,0,0,0l4.17-4.17h4.34l4.17,4.17h0Z"/>
      <path d="M31.21,50.58h-8.33s0,0,0,0c1.63-1.63,2.54-2.54,4.17-4.17h0c1.63,1.63,2.54,2.54,4.17,4.17h0Z"/>
      <path d="M43.3,5.95h-8.33s0,0,0,0c1.63-1.63,2.54-2.54,4.17-4.17h0c1.63,1.63,2.54,2.54,4.17,4.17h0Z"/>
      <line class="cls-1" y1=".38" x2="70.49" y2=".38"/>
    </g>
  </g>
</svg>