<?xml version="1.0" encoding="UTF-8"?>
<svg id="Layer_2" data-name="Layer 2" xmlns="http://www.w3.org/2000/svg" viewBox="0 0 143.52 17.55">
  <defs>
    <style>
      .cls-1 {
        fill: none;
        stroke: currentColor;
        stroke-miterlimit: 10;
        stroke-width: .75px;
      }
    </style>
  </defs>
  <g id="Layer_1-2" data-name="Layer 1">
    <g>
      <g>
        <path d="M142.24,14.93l-5.63-5.63c-.29-.29-.29-.77,0-1.06l5.63-5.63c.47-.47,1.28-.14,1.28.53v11.26c0,.67-.81,1-1.28.53Z"/>
        <path d="M140.91,1.28l-5.63,5.63c-.29.29-.77.29-1.06,0l-5.63-5.63c-.47-.47-.14-1.28.53-1.28h11.26c.67,0,1,.81.53,1.28Z"/>
        <path d="M127.25,2.62l5.63,5.63c.29.29.29.77,0,1.06l-5.63,5.63c-.47.47-1.28.14-1.28-.53V3.15c0-.67.81-1,1.28-.53Z"/>
        <path d="M128.59,16.27l5.63-5.63c.29-.29.77-.29,1.06,0l5.63,5.63c.47.47.14,1.28-.53,1.28h-11.26c-.67,0-1-.81-.53-1.28Z"/>
      </g>
      <g>
        <path d="M96.08,10.28c-.1,0-.2-.01-.29-.03-.1-.02-.2-.05-.29-.09-.09-.03-.17-.08-.25-.13-.09-.06-.16-.12-.23-.19-.28-.28-.44-.67-.44-1.06s.16-.78.44-1.06c.56-.56,1.56-.56,2.12,0,.28.28.44.66.44,1.06s-.16.78-.44,1.06c-.28.28-.67.44-1.06.44Z"/>
        <path d="M101.86,8.78c0-.83.67-1.5,1.5-1.5h0c.82,0,1.5.67,1.5,1.5h0c0,.83-.68,1.5-1.5,1.5h0c-.83,0-1.5-.67-1.5-1.5Z"/>
        <path d="M110.63,10.28c-.1,0-.19-.01-.29-.03-.1-.02-.19-.05-.28-.09-.09-.03-.18-.08-.26-.13-.08-.06-.16-.12-.23-.19-.28-.28-.44-.67-.44-1.06s.16-.78.44-1.06c.07-.07.15-.13.23-.19.08-.05.17-.1.26-.14s.18-.06.28-.08c.19-.04.39-.04.59,0,.09.02.19.04.28.08s.17.09.26.14c.08.06.15.12.22.19.28.28.44.66.44,1.06,0,.1,0,.19-.03.29-.02.1-.05.19-.08.28-.04.09-.09.18-.14.26-.06.08-.12.16-.19.23s-.14.13-.22.19c-.09.05-.17.1-.26.13-.09.04-.19.07-.28.09-.1.02-.2.03-.3.03Z"/>
      </g>
      <g>
        <path d="M96.08,10.28c-.1,0-.2-.01-.29-.03-.1-.02-.2-.05-.29-.09-.09-.03-.17-.08-.25-.13-.09-.06-.16-.12-.23-.19-.28-.28-.44-.67-.44-1.06s.16-.78.44-1.06c.56-.56,1.56-.56,2.12,0,.28.28.44.66.44,1.06s-.16.78-.44,1.06c-.28.28-.67.44-1.06.44Z"/>
        <path d="M101.86,8.78c0-.83.67-1.5,1.5-1.5h0c.82,0,1.5.67,1.5,1.5h0c0,.83-.68,1.5-1.5,1.5h0c-.83,0-1.5-.67-1.5-1.5Z"/>
        <path d="M110.63,10.28c-.1,0-.19-.01-.29-.03-.1-.02-.19-.05-.28-.09-.09-.03-.18-.08-.26-.13-.08-.06-.16-.12-.23-.19-.28-.28-.44-.67-.44-1.06s.16-.78.44-1.06c.07-.07.15-.13.23-.19.08-.05.17-.1.26-.14s.18-.06.28-.08c.19-.04.39-.04.59,0,.09.02.19.04.28.08s.17.09.26.14c.08.06.15.12.22.19.28.28.44.66.44,1.06,0,.1,0,.19-.03.29-.02.1-.05.19-.08.28-.04.09-.09.18-.14.26-.06.08-.12.16-.19.23s-.14.13-.22.19c-.09.05-.17.1-.26.13-.09.04-.19.07-.28.09-.1.02-.2.03-.3.03Z"/>
      </g>
      <g>
        <line class="cls-1" x1="75.51" y1="8.77" x2="1.53" y2="8.77"/>
        <circle cx="75.43" cy="8.77" r="1.61"/>
        <circle cx="1.61" cy="8.77" r="1.61"/>
      </g>
    </g>
  </g>
</svg>