<?xml version="1.0" encoding="UTF-8"?>
<svg id="Layer_2" data-name="Layer 2" xmlns="http://www.w3.org/2000/svg" viewBox="0 0 52.36 52.36">
  <g id="Layer_1-2" data-name="Layer 1">
    <g>
      <rect x="7.69" y="0" width="6.2" height="6.2" rx="1.84" ry="1.84"/>
      <rect x="23.08" y="0" width="6.2" height="6.2" rx="1.84" ry="1.84"/>
      <rect x="38.47" y="0" width="6.2" height="6.2" rx="1.84" ry="1.84"/>
      <rect x="0" y="7.69" width="6.2" height="6.2" rx="1.84" ry="1.84"/>
      <rect x="7.69" y="7.69" width="6.2" height="6.2" rx="1.84" ry="1.84"/>
      <rect x="15.39" y="7.69" width="6.2" height="6.2" rx="1.84" ry="1.84"/>
      <rect x="23.08" y="7.69" width="6.2" height="6.2" rx="1.84" ry="1.84"/>
      <rect x="30.77" y="7.69" width="6.2" height="6.2" rx="1.84" ry="1.84"/>
      <rect x="38.47" y="7.69" width="6.2" height="6.2" rx="1.84" ry="1.84"/>
      <rect x="46.16" y="7.69" width="6.2" height="6.2" rx="1.84" ry="1.84"/>
      <rect x="7.69" y="15.39" width="6.2" height="6.2" rx="1.84" ry="1.84"/>
      <rect x="23.08" y="15.39" width="6.2" height="6.2" rx="1.84" ry="1.84"/>
      <rect x="38.47" y="15.39" width="6.2" height="6.2" rx="1.84" ry="1.84"/>
      <rect x="0" y="23.08" width="6.2" height="6.2" rx="1.84" ry="1.84"/>
      <rect x="7.69" y="23.08" width="6.2" height="6.2" rx="1.84" ry="1.84"/>
      <rect x="15.39" y="23.08" width="6.2" height="6.2" rx="1.84" ry="1.84"/>
      <rect x="23.08" y="23.08" width="6.2" height="6.2" rx="1.84" ry="1.84"/>
      <rect x="30.77" y="23.08" width="6.2" height="6.2" rx="1.84" ry="1.84"/>
      <rect x="38.47" y="23.08" width="6.2" height="6.2" rx="1.84" ry="1.84"/>
      <rect x="46.16" y="23.08" width="6.2" height="6.2" rx="1.84" ry="1.84"/>
      <rect x="7.69" y="30.77" width="6.2" height="6.2" rx="1.84" ry="1.84"/>
      <rect x="23.08" y="30.77" width="6.2" height="6.2" rx="1.84" ry="1.84"/>
      <rect x="38.47" y="30.77" width="6.2" height="6.2" rx="1.84" ry="1.84"/>
      <rect x="0" y="38.47" width="6.2" height="6.2" rx="1.84" ry="1.84"/>
      <rect x="7.69" y="38.47" width="6.2" height="6.2" rx="1.84" ry="1.84"/>
      <rect x="15.39" y="38.47" width="6.2" height="6.2" rx="1.84" ry="1.84"/>
      <rect x="23.08" y="38.47" width="6.2" height="6.2" rx="1.84" ry="1.84"/>
      <rect x="30.77" y="38.47" width="6.2" height="6.2" rx="1.84" ry="1.84"/>
      <rect x="38.47" y="38.47" width="6.2" height="6.2" rx="1.84" ry="1.84"/>
      <rect x="46.16" y="38.47" width="6.2" height="6.2" rx="1.84" ry="1.84"/>
      <rect x="7.69" y="46.16" width="6.2" height="6.2" rx="1.84" ry="1.84"/>
      <rect x="23.08" y="46.16" width="6.2" height="6.2" rx="1.84" ry="1.84"/>
      <rect x="38.47" y="46.16" width="6.2" height="6.2" rx="1.84" ry="1.84"/>
    </g>
  </g>
</svg>