<?xml version="1.0" encoding="UTF-8"?>
<svg id="Layer_2" data-name="Layer 2" xmlns="http://www.w3.org/2000/svg" viewBox="0 0 225.98 93.49">
  <defs>
    <style>
      .cls-1 {
        font-size: 21px;
        letter-spacing: -.05em;
      }

      .cls-1, .cls-2 {
        font-family: 'Roboto Mono', ui-monospace, monospace;
        font-variation-settings: 'wght' 400;
      }

      .cls-2 {
        font-size: 8px;
        letter-spacing: -.05em;
      }
    </style>
  </defs>
  <g id="Layer_1-2" data-name="Layer 1">
    <g>
      <g>
        <polygon points="101.72 89.24 101.72 90.02 101.72 93.49 102.5 93.49 102.5 90.58 105.3 93.38 105.86 92.82 103.06 90.02 105.97 90.02 105.97 89.24 102.5 89.24 101.72 89.24"/>
        <polygon points="112.81 89.91 112.25 89.35 109.45 92.15 109.45 89.24 108.67 89.24 108.67 92.71 108.67 93.49 109.45 93.49 112.92 93.49 112.92 92.71 110.01 92.71 112.81 89.91"/>
        <polygon points="115.62 89.24 115.62 90.02 118.54 90.02 115.74 92.82 116.29 93.38 119.09 90.58 119.09 93.49 119.88 93.49 119.88 90.02 119.88 89.24 119.09 89.24 115.62 89.24"/>
        <polygon points="126.04 89.24 126.04 92.15 123.24 89.35 122.69 89.91 125.49 92.71 122.57 92.71 122.57 93.49 126.04 93.49 126.83 93.49 126.83 92.71 126.83 89.24 126.04 89.24"/>
      </g>
      <g>
        <polygon points="126.83 0 126.83 .78 126.83 4.25 126.04 4.25 126.04 1.34 123.24 4.14 122.69 3.58 125.49 .78 122.57 .78 122.57 0 126.04 0 126.83 0"/>
        <polygon points="115.74 .67 116.29 .11 119.09 2.92 119.09 0 119.88 0 119.88 3.47 119.88 4.25 119.09 4.25 115.62 4.25 115.62 3.47 118.54 3.47 115.74 .67"/>
        <polygon points="112.92 0 112.92 .78 110.01 .78 112.81 3.58 112.25 4.14 109.45 1.34 109.45 4.25 108.67 4.25 108.67 .78 108.67 0 109.45 0 112.92 0"/>
        <polygon points="102.5 0 102.5 2.92 105.3 .11 105.86 .67 103.06 3.47 105.97 3.47 105.97 4.25 102.5 4.25 101.72 4.25 101.72 3.47 101.72 0 102.5 0"/>
      </g>
      <text class="cls-1" transform="translate(0 54.34)"><tspan x="0" y="0">DEVICE</tspan></text>
      <text class="cls-2" transform="translate(96.11 45.05)"><tspan x="0" y="0">COMPANION LINK — ONLINE</tspan><tspan x="-22" y="9.2">LATENCY: OK | SIGNAL: STRONG</tspan></text>
      <g>
        <path d="M221.77.75c1.91,0,3.47,1.55,3.47,3.47v.08c0,1.91-1.55,3.47-3.47,3.47h-44.36c-1.91,0-3.47-1.55-3.47-3.47v-.08c0-1.91,1.55-3.47,3.47-3.47h44.36M221.77,0h-44.36C175.08,0,173.19,1.89,173.19,4.22v.08c0,2.33,1.89,4.22,4.22,4.22h44.36c2.33,0,4.22-1.89,4.22-4.22v-.08C225.98,1.89,224.09,0,221.77,0h0Z"/>
        <path d="M221.77,12.19c1.91,0,3.47,1.55,3.47,3.47v.08c0,1.91-1.55,3.47-3.47,3.47h-17.96c-1.91,0-3.47-1.55-3.47-3.47v-.08c0-1.91,1.55-3.47,3.47-3.47h17.96M221.77,11.44h-17.96c-2.33,0-4.22,1.89-4.22,4.22v.08c0,2.33,1.89,4.22,4.22,4.22h17.96c2.33,0,4.22-1.89,4.22-4.22v-.08c0-2.33-1.89-4.22-4.22-4.22h0Z"/>
        <path d="M221.77,23.63c1.91,0,3.47,1.55,3.47,3.47v.08c0,1.91-1.55,3.47-3.47,3.47h-4.77c-1.91,0-3.47-1.55-3.47-3.47v-.08c0-1.91,1.55-3.47,3.47-3.47h4.77M221.77,22.88h-4.77c-2.33,0-4.22,1.89-4.22,4.22v.08c0,2.33,1.89,4.22,4.22,4.22h4.77c2.33,0,4.22-1.89,4.22-4.22v-.08c0-2.33-1.89-4.22-4.22-4.22h0Z"/>
        <path d="M221.77,85.73c1.91,0,3.47,1.55,3.47,3.47v.08c0,1.91-1.55,3.47-3.47,3.47h-44.36c-1.91,0-3.47-1.55-3.47-3.47v-.08c0-1.91,1.55-3.47,3.47-3.47h44.36M221.77,84.98h-44.36c-2.33,0-4.22,1.89-4.22,4.22v.08c0,2.33,1.89,4.22,4.22,4.22h44.36c2.33,0,4.22-1.89,4.22-4.22v-.08c0-2.33-1.89-4.22-4.22-4.22h0Z"/>
        <path d="M221.77,74.29c1.91,0,3.47,1.55,3.47,3.47v.08c0,1.91-1.55,3.47-3.47,3.47h-17.96c-1.91,0-3.47-1.55-3.47-3.47v-.08c0-1.91,1.55-3.47,3.47-3.47h17.96M221.77,73.54h-17.96c-2.33,0-4.22,1.89-4.22,4.22v.08c0,2.33,1.89,4.22,4.22,4.22h17.96c2.33,0,4.22-1.89,4.22-4.22v-.08c0-2.33-1.89-4.22-4.22-4.22h0Z"/>
        <path d="M221.77,62.85c1.91,0,3.47,1.55,3.47,3.47v.08c0,1.91-1.55,3.47-3.47,3.47h-4.77c-1.91,0-3.47-1.55-3.47-3.47v-.08c0-1.91,1.55-3.47,3.47-3.47h4.77M221.77,62.1h-4.77c-2.33,0-4.22,1.89-4.22,4.22v.08c0,2.33,1.89,4.22,4.22,4.22h4.77c2.33,0,4.22-1.89,4.22-4.22v-.08c0-2.33-1.89-4.22-4.22-4.22h0Z"/>
      </g>
      <g>
        <path d="M49.86,85.73c1.91,0,3.47,1.55,3.47,3.47v.08c0,1.91-1.55,3.47-3.47,3.47H5.51c-1.91,0-3.47-1.55-3.47-3.47v-.08c0-1.91,1.55-3.47,3.47-3.47h44.36M49.86,84.98H5.51c-2.33,0-4.22,1.89-4.22,4.22v.08c0,2.33,1.89,4.22,4.22,4.22h44.36c2.33,0,4.22-1.89,4.22-4.22v-.08c0-2.33-1.89-4.22-4.22-4.22h0Z"/>
        <path d="M23.47,74.29c1.91,0,3.47,1.55,3.47,3.47v.08c0,1.91-1.55,3.47-3.47,3.47H5.51c-1.91,0-3.47-1.55-3.47-3.47v-.08c0-1.91,1.55-3.47,3.47-3.47h17.96M23.47,73.54H5.51c-2.33,0-4.22,1.89-4.22,4.22v.08c0,2.33,1.89,4.22,4.22,4.22h17.96c2.33,0,4.22-1.89,4.22-4.22v-.08c0-2.33-1.89-4.22-4.22-4.22h0Z"/>
        <path d="M10.27,62.85c1.91,0,3.47,1.55,3.47,3.47v.08c0,1.91-1.55,3.47-3.47,3.47h-4.77c-1.91,0-3.47-1.55-3.47-3.47v-.08c0-.93.36-1.8,1.02-2.45.65-.65,1.53-1.02,2.45-1.02h4.77M10.27,62.1h-4.77c-2.33,0-4.22,1.89-4.22,4.22v.08c0,2.33,1.89,4.22,4.22,4.22h4.77c2.33,0,4.22-1.89,4.22-4.22v-.08c0-2.33-1.89-4.22-4.22-4.22h0Z"/>
        <path d="M49.86.75c1.91,0,3.47,1.55,3.47,3.47v.08c0,1.91-1.55,3.47-3.47,3.47H5.51c-1.91,0-3.47-1.55-3.47-3.47v-.08c0-1.91,1.55-3.47,3.47-3.47h44.36M49.86,0H5.51C3.18,0,1.29,1.89,1.29,4.22v.08c0,2.33,1.89,4.22,4.22,4.22h44.36c2.33,0,4.22-1.89,4.22-4.22v-.08C54.08,1.89,52.19,0,49.86,0h0Z"/>
        <path d="M23.47,12.19c1.91,0,3.47,1.55,3.47,3.47v.08c0,1.91-1.55,3.47-3.47,3.47H5.51c-1.91,0-3.47-1.55-3.47-3.47v-.08c0-1.91,1.55-3.47,3.47-3.47h17.96M23.47,11.44H5.51c-2.33,0-4.22,1.89-4.22,4.22v.08c0,2.33,1.89,4.22,4.22,4.22h17.96c2.33,0,4.22-1.89,4.22-4.22v-.08c0-2.33-1.89-4.22-4.22-4.22h0Z"/>
        <path d="M10.27,23.63c1.91,0,3.47,1.55,3.47,3.47v.08c0,1.91-1.55,3.47-3.47,3.47h-4.77c-1.91,0-3.47-1.55-3.47-3.47v-.08c0-1.91,1.55-3.47,3.47-3.47h4.77M10.27,22.88h-4.77c-2.33,0-4.22,1.89-4.22,4.22v.08c0,2.33,1.89,4.22,4.22,4.22h4.77c2.33,0,4.22-1.89,4.22-4.22v-.08c0-2.33-1.89-4.22-4.22-4.22h0Z"/>
      </g>
      <path d="M224.87,52.06l-4.9-4.9c-.25-.25-.25-.67,0-.92l4.9-4.9c.41-.41,1.11-.12,1.11.46v9.81c0,.58-.7.87-1.11.46Z"/>
      <path d="M223.7,40.16l-4.9,4.9c-.25.25-.67.25-.92,0l-4.9-4.9c-.41-.41-.12-1.11.46-1.11h9.81c.58,0,.87.7.46,1.11Z"/>
      <path d="M211.8,41.33l4.9,4.9c.25.25.25.67,0,.92l-4.9,4.9c-.41.41-1.11.12-1.11-.46v-9.81c0-.58.7-.87,1.11-.46Z"/>
      <path d="M212.97,53.22l4.9-4.9c.25-.25.67-.25.92,0l4.9,4.9c.41.41.12,1.11-.46,1.11h-9.81c-.58,0-.87-.7-.46-1.11Z"/>
    </g>
  </g>
</svg>