<?xml version="1.0" encoding="UTF-8"?>
<svg id="Layer_2" data-name="Layer 2" xmlns="http://www.w3.org/2000/svg" viewBox="0 0 277.82 81.79">
  <defs>
    <style>
      .cls-1, .cls-2, .cls-3 {
        font-family: 'Roboto Mono', ui-monospace, monospace;
        font-variation-settings: 'wght' 400;
      }

      .cls-4, .cls-5 {
        stroke-width: .75px;
      }

      .cls-4, .cls-5, .cls-6, .cls-7 {
        fill: none;
        stroke: currentColor;
      }

      .cls-2 {
        font-size: 12px;
        letter-spacing: -.05em;
      }

      .cls-8 {
        font-size: 8px;
        letter-spacing: -.05em;
      }

      .cls-5 {
        stroke-linecap: round;
        stroke-linejoin: round;
      }

      .cls-6 {
        stroke-linecap: square;
      }

      .cls-6, .cls-7 {
        stroke-miterlimit: 10;
        stroke-width: 3.5px;
      }

      .cls-3 {
        font-size: 48.13px;
        letter-spacing: -.12em;
      }

      .cls-9 {
        font-family: 'Roboto Mono', ui-monospace, monospace;
        font-variation-settings: 'wght' 700;
        font-weight: 700;
      }
    </style>
  </defs>
  <g id="Layer_1-2" data-name="Layer 1">
    <g>
      <text class="cls-3" transform="translate(85.19 42.63)"><tspan x="0" y="0">005</tspan></text>
      <text class="cls-2" transform="translate(33.42 66.54)"><tspan x="0" y="0">DEVICE LINK — WAITING</tspan><tspan x="0" y="12" xml:space="preserve">  SCAN QR OR ENTER CODE</tspan></text>
      <circle class="cls-4" cx="176.62" cy="37.04" r="3.42"/>
      <circle class="cls-4" cx="3.79" cy="74.81" r="3.42"/>
      <circle class="cls-4" cx="274.02" cy="74.81" r="3.42"/>
      <circle class="cls-4" cx="167.09" cy="37.04" r="3.42"/>
      <line class="cls-5" x1="173.2" y1="50.19" x2="82.56" y2="50.19"/>
      <line class="cls-5" x1="75.72" y1="50.19" x2="27.56" y2="50.19"/>
      <line class="cls-5" x1="75.72" y1="3.79" x2="27.56" y2="3.79"/>
      <line class="cls-5" x1="174.61" y1="47.42" x2="169.09" y2="39.81"/>
      <circle class="cls-4" cx="24.14" cy="50.19" r="3.42"/>
      <circle class="cls-4" cx="24.14" cy="3.79" r="3.42"/>
      <circle class="cls-4" cx="79.14" cy="3.79" r="3.42"/>
      <circle class="cls-4" cx="79.14" cy="50.19" r="3.42"/>
      <circle class="cls-4" cx="176.62" cy="50.19" r="3.42"/>
      <circle class="cls-4" cx="204.93" cy="55.42" r="3.42"/>
      <circle class="cls-4" cx="204.93" cy="44.95" r="3.42"/>
      <circle class="cls-4" cx="194.47" cy="55.42" r="3.42"/>
      <circle class="cls-4" cx="194.47" cy="44.95" r="3.42"/>
      <text class="cls-8" transform="translate(162.64 13.98)"><tspan class="cls-9"><tspan x="0" y="0">PAIRING LAYER</tspan></tspan><tspan class="cls-1"><tspan x="0" y="7">READY</tspan></tspan><tspan class="cls-1"><tspan x="0" y="14">CODE: PAIR</tspan></tspan></text>
      <path d="M246.13,63.83c0-1.45,1.18-2.63,2.64-2.64h0c1.46,0,2.64,1.18,2.64,2.64h0c0,1.46-1.18,2.64-2.64,2.64h0c-1.46,0-2.64-1.18-2.64-2.64ZM237.64,64.28h.01c-1.35-.56-2-2.1-1.44-3.46h0c.56-1.34,2.1-1.99,3.44-1.43h.01c1.34.55,1.99,2.1,1.43,3.45h0c-.42,1.02-1.41,1.64-2.44,1.64h0c-.34,0-.68-.06-1.01-.2ZM256.44,62.84c-.56-1.35.07-2.9,1.43-3.46h0c1.34-.56,2.9.07,3.45,1.43h0c.56,1.34-.07,2.9-1.43,3.46h0c-.33.14-.67.2-1,.2h0c-1.04,0-2.02-.61-2.44-1.63ZM228.22,57.99c-1.04-1.03-1.04-2.69-.01-3.73h0c1.04-1.04,2.7-1.04,3.74-.01h0c1.04,1.04,1.04,2.71,0,3.74h0c-.51.52-1.19.77-1.87.77h0c-.67,0-1.34-.25-1.86-.77ZM265.57,57.95c-1.02-1.04-1.02-2.7,0-3.74h0c1.04-1.04,2.71-1.04,3.74,0h0c1.03,1.04,1.03,2.7,0,3.73h0c-.52.52-1.19.78-1.87.78h0c-.68,0-1.35-.26-1.87-.77ZM221.9,48.58c-.56-1.35.07-2.9,1.42-3.46h0c1.35-.56,2.89.07,3.45,1.42h0c.56,1.35-.07,2.9-1.42,3.46h0c-.34.14-.68.21-1.01.21h0c-1.04,0-2.02-.61-2.44-1.63ZM272.17,49.95c-1.35-.56-2-2.1-1.44-3.46h0c.56-1.34,2.1-1.99,3.46-1.43h0c1.34.56,1.99,2.1,1.43,3.45h0c-.42,1.02-1.41,1.64-2.44,1.64h0c-.34,0-.68-.06-1-.2ZM219.67,37.46c0-1.47,1.17-2.65,2.64-2.65h0c1.46,0,2.64,1.17,2.64,2.64h0c0,1.46-1.17,2.64-2.63,2.64h0c-1.46,0-2.65-1.17-2.65-2.63ZM272.54,37.4v-.05h0v-.04h0c-.01-1.46,1.17-2.65,2.63-2.65h0c1.46-.01,2.64,1.17,2.65,2.63h0v.06h0v.05h0c0,1.46-1.18,2.64-2.64,2.64h0c-1.46,0-2.64-1.18-2.64-2.64ZM224.95,37.45h0s0,0,0,0h0ZM223.28,29.78c-1.34-.56-1.99-2.1-1.43-3.45h0c.55-1.35,2.09-2,3.45-1.44h0c1.35.55,1.99,2.09,1.44,3.44h0c-.42,1.03-1.41,1.64-2.44,1.64h0c-.34,0-.68-.06-1.01-.2ZM270.7,28.21c-.57-1.34.07-2.88,1.42-3.46h0c1.34-.56,2.9.07,3.45,1.42h0c.56,1.34-.07,2.9-1.42,3.46h0c-.34.15-.68.21-1.01.21h0c-1.04,0-2.02-.61-2.44-1.63ZM228.14,20.63c-1.04-1.02-1.04-2.71-.01-3.74h0c1.02-1.02,2.7-1.04,3.73,0h0c1.05,1.03,1.05,2.69.02,3.73h0c-.52.52-1.19.78-1.88.78h0c-.67,0-1.34-.26-1.86-.77ZM265.51,20.51c-1.04-1.03-1.05-2.69-.02-3.73h0c1.04-1.04,2.71-1.05,3.74-.01h0c1.04,1.02,1.04,2.69.01,3.73h0c-.52.52-1.19.78-1.87.78h0c-.68,0-1.35-.25-1.86-.77ZM236.12,14.03c-.56-1.35.07-2.9,1.42-3.47h0c1.35-.56,2.89.07,3.45,1.43h0c.56,1.34-.07,2.88-1.42,3.46h0c-.34.14-.68.2-1.01.2h0c-1.04,0-2.02-.61-2.44-1.62ZM257.77,15.39h0c-1.34-.56-1.99-2.1-1.44-3.46h0c.56-1.34,2.09-1.99,3.44-1.44h0c1.35.56,2,2.1,1.44,3.44h0c-.41,1.03-1.39,1.64-2.44,1.64h0c-.34,0-.68-.06-1-.19ZM248.66,13.61c-1.46,0-2.64-1.18-2.64-2.64h0c-.01-1.46,1.17-2.64,2.63-2.64h0c1.46-.01,2.64,1.17,2.65,2.63h0c0,1.46-1.18,2.64-2.63,2.65h0c-1.47,0,0,0-.01,0Z"/>
      <g>
        <line class="cls-7" x1="82.56" y1="26.99" x2="29.14" y2="26.99"/>
        <line class="cls-6" x1="38.52" y1="17.61" x2="29.14" y2="26.99"/>
        <line class="cls-6" x1="38.52" y1="36.38" x2="29.14" y2="26.99"/>
      </g>
      <g>
        <line class="cls-7" x1=".38" y1="26.99" x2="19.14" y2="26.99"/>
        <line class="cls-6" x1="9.76" y1="36.38" x2="19.14" y2="26.99"/>
        <line class="cls-6" x1="9.76" y1="17.61" x2="19.14" y2="26.99"/>
      </g>
      <path d="M211.82,49.81h-6.84c-2.71,0-4.9-2.2-4.9-4.9v-6.84h-.75v6.84c0,2.71-2.2,4.9-4.9,4.9h-14.39v.75h14.39c2.71,0,4.9,2.2,4.9,4.9v6.84h.75v-6.84c0-2.71,2.2-4.9,4.9-4.9h6.84v-.75Z"/>
      <line class="cls-4" x1="22.07" y1="52.91" x2="5.98" y2="72.19"/>
    </g>
  </g>
</svg>