<?xml version="1.0" encoding="UTF-8"?>
<svg id="Layer_2" data-name="Layer 2" xmlns="http://www.w3.org/2000/svg" viewBox="0 0 282.94 32.92">
  <defs>
    <style>
      .cls-1 {
        font-family: 'Roboto Mono', ui-monospace, monospace;
        font-size: 8px;
        font-variation-settings: 'wght' 400;
      }

      .cls-2 {
        letter-spacing: 1.09em;
      }

      .cls-3 {
        letter-spacing: 1.09em;
      }

      .cls-4, .cls-5 {
        fill: none;
        stroke: currentColor;
        stroke-miterlimit: 10;
        stroke-width: .75px;
      }

      .cls-6 {
        letter-spacing: -.16em;
      }

      .cls-7 {
        letter-spacing: -.16em;
      }

      .cls-8 {
        letter-spacing: -.05em;
      }

      .cls-9 {
        letter-spacing: -.05em;
      }

      .cls-5 {
        stroke-linecap: square;
      }

      .cls-10 {
        font-family: 'Roboto Mono', ui-monospace, monospace;
        font-size: 12px;
        font-variation-settings: 'wght' 500;
        font-weight: 500;
        letter-spacing: -.05em;
      }
    </style>
  </defs>
  <g id="Layer_1-2" data-name="Layer 1">
    <g>
      <g>
        <rect x="267.18" y=".79" width="3.33" height="3.33" rx=".99" ry=".99"/>
        <rect x="258.91" y="4.93" width="3.33" height="3.33" rx=".99" ry=".99"/>
        <rect x="267.18" y="4.93" width="3.33" height="3.33" rx=".99" ry=".99"/>
        <rect x="275.46" y="4.93" width="3.33" height="3.33" rx=".99" ry=".99"/>
        <rect x="263.04" y="9.07" width="3.33" height="3.33" rx=".99" ry=".99"/>
        <rect x="267.18" y="9.07" width="3.33" height="3.33" rx=".99" ry=".99"/>
        <rect x="271.32" y="9.07" width="3.33" height="3.33" rx=".99" ry=".99"/>
        <rect x="254.77" y="13.21" width="3.33" height="3.33" rx=".99" ry=".99"/>
        <rect x="258.91" y="13.21" width="3.33" height="3.33" rx=".99" ry=".99"/>
        <rect x="263.04" y="13.21" width="3.33" height="3.33" rx=".99" ry=".99"/>
        <rect x="267.18" y="13.21" width="3.33" height="3.33" rx=".99" ry=".99"/>
        <rect x="271.32" y="13.21" width="3.33" height="3.33" rx=".99" ry=".99"/>
        <rect x="275.46" y="13.21" width="3.33" height="3.33" rx=".99" ry=".99"/>
        <rect x="279.6" y="13.21" width="3.33" height="3.33" rx=".99" ry=".99"/>
        <rect x="263.04" y="17.35" width="3.33" height="3.33" rx=".99" ry=".99"/>
        <rect x="267.18" y="17.35" width="3.33" height="3.33" rx=".99" ry=".99"/>
        <rect x="271.32" y="17.35" width="3.33" height="3.33" rx=".99" ry=".99"/>
        <rect x="258.91" y="21.49" width="3.33" height="3.33" rx=".99" ry=".99"/>
        <rect x="267.18" y="21.49" width="3.33" height="3.33" rx=".99" ry=".99"/>
        <rect x="275.46" y="21.49" width="3.33" height="3.33" rx=".99" ry=".99"/>
        <rect x="267.18" y="25.62" width="3.33" height="3.33" rx=".99" ry=".99"/>
      </g>
      <g>
        <circle class="cls-4" cx="14.52" cy="14.93" r="14.14"/>
        <g>
          <line class="cls-4" x1=".38" y1="14.93" x2="23.79" y2="14.93"/>
          <line class="cls-5" x1="20.51" y1="18.22" x2="23.79" y2="14.93"/>
          <line class="cls-5" x1="20.51" y1="11.65" x2="23.79" y2="14.93"/>
        </g>
      </g>
      <g>
        <circle class="cls-4" cx="42.81" cy="14.93" r="14.14"/>
        <g>
          <line class="cls-4" x1="32.81" y1="4.93" x2="49.37" y2="21.49"/>
          <line class="cls-5" x1="44.72" y1="21.49" x2="49.37" y2="21.49"/>
          <line class="cls-5" x1="49.37" y1="16.85" x2="49.37" y2="21.49"/>
        </g>
      </g>
      <g>
        <circle class="cls-4" cx="71.1" cy="14.93" r="14.14"/>
        <g>
          <line class="cls-4" x1="71.1" y1="29.08" x2="71.1" y2="5.66"/>
          <line class="cls-5" x1="74.38" y1="8.95" x2="71.1" y2="5.66"/>
          <line class="cls-5" x1="67.81" y1="8.95" x2="71.1" y2="5.66"/>
        </g>
      </g>
      <g>
        <circle class="cls-4" cx="99.39" cy="14.93" r="14.14"/>
        <g>
          <line class="cls-4" x1="109.39" y1="4.93" x2="92.83" y2="21.49"/>
          <line class="cls-5" x1="92.83" y1="16.85" x2="92.83" y2="21.49"/>
          <line class="cls-5" x1="97.48" y1="21.49" x2="92.83" y2="21.49"/>
        </g>
      </g>
      <text class="cls-10" transform="translate(115.89 10.27)"><tspan x="0" y="0">[ACTIVATED]</tspan></text>
      <text class="cls-1" transform="translate(117.59 21.36)"><tspan class="cls-9" x="0" y="0">PRIMARY</tspan><tspan class="cls-3" x="30.81" y="0"> </tspan><tspan class="cls-9" x="44.35" y="0">ROUTE</tspan><tspan class="cls-2" x="66.35" y="0"> </tspan><tspan class="cls-9" x="79.9" y="0">—</tspan><tspan class="cls-3" x="84.3" y="0"> </tspan><tspan class="cls-9" x="97.84" y="0">VERIFIED</tspan><tspan class="cls-9" x="0" y="8">CHECKSUM:</tspan><tspan class="cls-7" x="39.61" y="8"> </tspan><tspan class="cls-9" x="43.16" y="8">OK</tspan><tspan class="cls-6" x="51.97" y="8"> </tspan><tspan class="cls-9" x="55.52" y="8">|</tspan><tspan class="cls-7" x="59.92" y="8"> </tspan><tspan class="cls-9" x="63.48" y="8">THROUGHPUT:</tspan><tspan class="cls-7" x="111.89" y="8"> </tspan><tspan class="cls-8" x="115.45" y="8">HIGH</tspan></text>
      <g>
        <line class="cls-4" x1="249.43" y1="6.6" x2="192.82" y2="6.6"/>
        <circle cx="249.35" cy="6.6" r="1.69"/>
        <circle cx="192.91" cy="6.6" r="1.69"/>
      </g>
    </g>
  </g>
</svg>