<?xml version="1.0" encoding="UTF-8"?>
<svg id="Layer_2" data-name="Layer 2" xmlns="http://www.w3.org/2000/svg" viewBox="0 0 225.96 93.49">
  <defs>
    <style>
      .cls-1 {
        font-size: 21px;
        letter-spacing: -.05em;
      }

      .cls-1, .cls-2 {
        font-family: 'Roboto Mono', ui-monospace, monospace;
        font-variation-settings: 'wght' 400;
      }

      .cls-2 {
        font-size: 8px;
        letter-spacing: -.05em;
      }
    </style>
  </defs>
  <g id="Layer_1-2" data-name="Layer 1">
    <g>
      <g>
        <polygon points="100.43 89.24 100.43 90.02 100.43 93.49 101.21 93.49 101.21 90.58 104.01 93.38 104.56 92.82 101.76 90.02 104.68 90.02 104.68 89.24 101.21 89.24 100.43 89.24"/>
        <polygon points="111.52 89.91 110.96 89.35 108.16 92.15 108.16 89.24 107.38 89.24 107.38 92.71 107.38 93.49 108.16 93.49 111.63 93.49 111.63 92.71 108.72 92.71 111.52 89.91"/>
        <polygon points="114.33 89.24 114.33 90.02 117.24 90.02 114.44 92.82 115 93.38 117.8 90.58 117.8 93.49 118.58 93.49 118.58 90.02 118.58 89.24 117.8 89.24 114.33 89.24"/>
        <polygon points="124.75 89.24 124.75 92.15 121.95 89.35 121.39 89.91 124.2 92.71 121.28 92.71 121.28 93.49 124.75 93.49 125.53 93.49 125.53 92.71 125.53 89.24 124.75 89.24"/>
      </g>
      <g>
        <polygon points="125.53 0 125.53 .78 125.53 4.25 124.75 4.25 124.75 1.34 121.95 4.14 121.39 3.58 124.2 .78 121.28 .78 121.28 0 124.75 0 125.53 0"/>
        <polygon points="114.44 .67 115 .11 117.8 2.92 117.8 0 118.58 0 118.58 3.47 118.58 4.25 117.8 4.25 114.33 4.25 114.33 3.47 117.24 3.47 114.44 .67"/>
        <polygon points="111.63 0 111.63 .78 108.72 .78 111.52 3.58 110.96 4.14 108.16 1.34 108.16 4.25 107.38 4.25 107.38 .78 107.38 0 108.16 0 111.63 0"/>
        <polygon points="101.21 0 101.21 2.92 104.01 .11 104.56 .67 101.76 3.47 104.68 3.47 104.68 4.25 101.21 4.25 100.43 4.25 100.43 3.47 100.43 0 101.21 0"/>
      </g>
      <text class="cls-1" transform="translate(155.6 54.34)"><tspan x="0" y="0">SENSORS</tspan></text>
      <text class="cls-2" transform="translate(20.57 45.05)"><tspan x="0" y="0">SENSOR ARRAY — REQUESTING</tspan><tspan x="0" y="9.2">GPS + MOTION | TAP ALLOW ACCESS</tspan></text>
      <g>
        <path d="M7.65,54.34c-4.22,0-7.65-3.43-7.65-7.65s3.43-7.65,7.65-7.65,7.65,3.43,7.65,7.65-3.43,7.65-7.65,7.65ZM7.65,39.69c-3.86,0-7.01,3.15-7.01,7.01s3.15,7.01,7.01,7.01,7.01-3.15,7.01-7.01-3.15-7.01-7.01-7.01Z"/>
        <path d="M7.65,54.34c-2.46,0-4.38-3.36-4.38-7.65s1.92-7.65,4.38-7.65,4.38,3.36,4.38,7.65-1.92,7.65-4.38,7.65ZM7.65,39.69c-2.06,0-3.76,3.15-3.76,7.01s1.68,7.01,3.76,7.01,3.76-3.15,3.76-7.01-1.69-7.01-3.76-7.01Z"/>
        <path d="M1.55,42.31h12.18v.64H1.55v-.64ZM1.55,50.45h12.18v.64H1.55v-.64ZM.32,46.37h14.65v.64H.32v-.64Z"/>
        <path d="M7.33,39.37h.64v14.65h-.64v-14.65Z"/>
      </g>
      <g>
        <path d="M220.47,23.63c1.91,0,3.47,1.55,3.47,3.47v.08c0,1.91-1.55,3.47-3.47,3.47h-44.36c-1.91,0-3.47-1.55-3.47-3.47v-.08c0-1.91,1.55-3.47,3.47-3.47h44.36M220.47,22.88h-44.36c-2.33,0-4.22,1.89-4.22,4.22v.08c0,2.33,1.89,4.22,4.22,4.22h44.36c2.33,0,4.22-1.89,4.22-4.22v-.08c0-2.33-1.89-4.22-4.22-4.22h0Z"/>
        <path d="M220.47,12.19c1.91,0,3.47,1.55,3.47,3.47v.08c0,1.91-1.55,3.47-3.47,3.47h-17.96c-1.91,0-3.47-1.55-3.47-3.47v-.08c0-1.91,1.55-3.47,3.47-3.47h17.96M220.47,11.44h-17.96c-2.33,0-4.22,1.89-4.22,4.22v.08c0,2.33,1.89,4.22,4.22,4.22h17.96c2.33,0,4.22-1.89,4.22-4.22v-.08c0-2.33-1.89-4.22-4.22-4.22h0Z"/>
        <path d="M220.47.75c1.91,0,3.47,1.55,3.47,3.47v.08c0,1.91-1.55,3.47-3.47,3.47h-4.77c-1.91,0-3.47-1.55-3.47-3.47v-.08c0-1.91,1.55-3.47,3.47-3.47h4.77M220.47,0h-4.77c-2.33,0-4.22,1.89-4.22,4.22v.08c0,2.33,1.89,4.22,4.22,4.22h4.77c2.33,0,4.22-1.89,4.22-4.22v-.08c0-2.33-1.89-4.22-4.22-4.22h0Z"/>
        <path d="M220.47,62.85c1.91,0,3.47,1.55,3.47,3.47v.08c0,1.91-1.55,3.47-3.47,3.47h-44.36c-1.91,0-3.47-1.55-3.47-3.47v-.08c0-1.91,1.55-3.47,3.47-3.47h44.36M220.47,62.1h-44.36c-2.33,0-4.22,1.89-4.22,4.22v.08c0,2.33,1.89,4.22,4.22,4.22h44.36c2.33,0,4.22-1.89,4.22-4.22v-.08c0-2.33-1.89-4.22-4.22-4.22h0Z"/>
        <path d="M220.47,74.29c1.91,0,3.47,1.55,3.47,3.47v.08c0,1.91-1.55,3.47-3.47,3.47h-17.96c-1.91,0-3.47-1.55-3.47-3.47v-.08c0-1.91,1.55-3.47,3.47-3.47h17.96M220.47,73.54h-17.96c-2.33,0-4.22,1.89-4.22,4.22v.08c0,2.33,1.89,4.22,4.22,4.22h17.96c2.33,0,4.22-1.89,4.22-4.22v-.08c0-2.33-1.89-4.22-4.22-4.22h0Z"/>
        <path d="M220.47,85.73c1.91,0,3.47,1.55,3.47,3.47v.08c0,1.91-1.55,3.47-3.47,3.47h-4.77c-1.91,0-3.47-1.55-3.47-3.47v-.08c0-1.91,1.55-3.47,3.47-3.47h4.77M220.47,84.98h-4.77c-2.33,0-4.22,1.89-4.22,4.22v.08c0,2.33,1.89,4.22,4.22,4.22h4.77c2.33,0,4.22-1.89,4.22-4.22v-.08c0-2.33-1.89-4.22-4.22-4.22h0Z"/>
      </g>
      <g>
        <path d="M48.57,62.85c1.91,0,3.47,1.55,3.47,3.47v.08c0,1.91-1.55,3.47-3.47,3.47H4.22c-1.91,0-3.47-1.55-3.47-3.47v-.08c0-1.91,1.55-3.47,3.47-3.47h44.36M48.57,62.1H4.22C1.89,62.1,0,63.99,0,66.32v.08C0,68.72,1.89,70.61,4.22,70.61h44.36c2.33,0,4.22-1.89,4.22-4.22v-.08c0-2.33-1.89-4.22-4.22-4.22h0Z"/>
        <path d="M22.18,74.29c1.91,0,3.47,1.55,3.47,3.47v.08c0,1.91-1.55,3.47-3.47,3.47H4.22c-1.91,0-3.47-1.55-3.47-3.47v-.08c0-1.91,1.55-3.47,3.47-3.47h17.96M22.18,73.54H4.22C1.89,73.54,0,75.43,0,77.76v.08C0,80.16,1.89,82.05,4.22,82.05h17.96c2.33,0,4.22-1.89,4.22-4.22v-.08c0-2.33-1.89-4.22-4.22-4.22h0Z"/>
        <path d="M8.98,85.73c1.91,0,3.47,1.55,3.47,3.47v.08c0,1.91-1.55,3.47-3.47,3.47h-4.77c-1.91,0-3.47-1.55-3.47-3.47v-.08c0-1.91,1.55-3.47,3.47-3.47h4.77M8.98,84.98h-4.77C1.89,84.98,0,86.87,0,89.2v.08C0,91.6,1.89,93.49,4.22,93.49h4.77c2.33,0,4.22-1.89,4.22-4.22v-.08c0-2.33-1.89-4.22-4.22-4.22h0Z"/>
        <path d="M48.57,23.63c1.91,0,3.47,1.55,3.47,3.47v.08c0,1.91-1.55,3.47-3.47,3.47H4.22c-1.91,0-3.47-1.55-3.47-3.47v-.08c0-1.91,1.55-3.47,3.47-3.47h44.36M48.57,22.88H4.22C1.89,22.88,0,24.77,0,27.1v.08C0,29.5,1.89,31.39,4.22,31.39h44.36c2.33,0,4.22-1.89,4.22-4.22v-.08c0-2.33-1.89-4.22-4.22-4.22h0Z"/>
        <path d="M22.18,12.19c1.91,0,3.47,1.55,3.47,3.47v.08c0,1.91-1.55,3.47-3.47,3.47H4.22c-1.91,0-3.47-1.55-3.47-3.47v-.08c0-1.91,1.55-3.47,3.47-3.47h17.96M22.18,11.44H4.22C1.89,11.44,0,13.33,0,15.66v.08C0,18.06,1.89,19.95,4.22,19.95h17.96c2.33,0,4.22-1.89,4.22-4.22v-.08c0-2.33-1.89-4.22-4.22-4.22h0Z"/>
        <path d="M8.98.75c1.91,0,3.47,1.55,3.47,3.47v.08c0,1.91-1.55,3.47-3.47,3.47h-4.77c-1.91,0-3.47-1.55-3.47-3.47v-.08C.75,2.3,2.3.75,4.22.75h4.77M8.98,0h-4.77C1.89,0,0,1.89,0,4.22v.08C0,6.62,1.89,8.51,4.22,8.51h4.77c2.33,0,4.22-1.89,4.22-4.22v-.08c0-2.33-1.89-4.22-4.22-4.22h0Z"/>
      </g>
    </g>
  </g>
</svg>