<?xml version="1.0" encoding="UTF-8"?>
<svg id="Layer_2" data-name="Layer 2" xmlns="http://www.w3.org/2000/svg" viewBox="0 0 297.76 229.15">
  <defs>
    <style>
      .cls-1, .cls-2 {
        fill: none;
      }

      .cls-1, .cls-2, .cls-3 {
        stroke: currentColor;
        stroke-width: .75px;
      }

      .cls-4 {
        font-family: 'Roboto Mono', ui-monospace, monospace;
        font-size: 42px;
        font-variation-settings: 'wght' 500;
        font-weight: 500;
        letter-spacing: -.05em;
      }

      .cls-5 {
        font-size: 12px;
        letter-spacing: -.05em;
      }

      .cls-5, .cls-6 {
        font-family: 'Roboto Mono', ui-monospace, monospace;
        font-variation-settings: 'wght' 400;
      }

      .cls-2 {
        stroke-linecap: round;
        stroke-linejoin: round;
      }

      .cls-6 {
        font-size: 8px;
        letter-spacing: -.05em;
      }
    </style>
  </defs>
  <g id="Layer_1-2" data-name="Layer 1">
    <g>
      <g>
        <line class="cls-2" x1="32.76" y1="79.43" x2="124.06" y2="132.14"/>
        <line class="cls-2" x1="81.63" y1="30.55" x2="134.35" y2="121.85"/>
        <line class="cls-2" x1="148.4" y1="12.66" x2="148.4" y2="118.09"/>
        <line class="cls-2" x1="215.17" y1="30.55" x2="162.45" y2="121.85"/>
        <line class="cls-2" x1="264.05" y1="79.43" x2="172.74" y2="132.14"/>
        <line class="cls-2" x1="281.94" y1="146.19" x2="176.51" y2="146.19"/>
        <line class="cls-2" x1="14.86" y1="146.19" x2="120.29" y2="146.19"/>
        <circle class="cls-1" cx="148.4" cy="146.19" r="6.27"/>
        <circle class="cls-1" cx="148.4" cy="6.64" r="6.27"/>
        <circle class="cls-1" cx="8.59" cy="146.19" r="6.27"/>
        <circle class="cls-1" cx="288.21" cy="146.19" r="6.27"/>
      </g>
      <g>
        <circle class="cls-3" cx="288.21" cy="198.41" r="6.27"/>
        <circle class="cls-1" cx="270.73" cy="198.41" r="6.27"/>
        <line class="cls-2" x1="281.94" y1="222.51" x2="14.86" y2="222.51"/>
        <line class="cls-2" x1="284.53" y1="217.44" x2="274.41" y2="203.48"/>
        <circle class="cls-1" cx="8.59" cy="222.51" r="6.27"/>
        <circle class="cls-1" cx="288.21" cy="222.51" r="6.27"/>
      </g>
      <text class="cls-4" transform="translate(0 191.14)"><tspan x="0" y="0">SENSORS</tspan></text>
      <text class="cls-5" transform="translate(144.65 169.83)"><tspan x="0" y="0">TARGET: LOCATION + IMU</tspan><tspan x="0" y="10.5">02.44 / 118.09 / 352.01</tspan><tspan x="0" y="21">UNIT–E9G</tspan></text>
      <text class="cls-6" transform="translate(2.32 201.41)"><tspan x="0" y="0">SENSOR ARRAY — REQUESTING</tspan><tspan x="0" y="7" xml:space="preserve">                TEMP: 23°C – PRESSURE: 1.2kPa</tspan><tspan x="0" y="14" xml:space="preserve">    AWAITING SAFARI PERMISSION | LATENCY: 9ms</tspan></text>
    </g>
  </g>
</svg>